<svg xmlns="http://www.w3.org/2000/svg" fill="none" viewBox="0 0 33 34"><path fill="currentColor" d="M31.824 23.624a42 42 0 0 0-6.12-1.932c-.309-3.765-1.892-7.153-4.342-9.193l4.909-4.82a.53.53 0 0 0 .179-.41.53.53 0 0 0-.18-.41L24.6 5.217a.585.585 0 0 0-.837 0l-5.192 5.117a2 2 0 0 1-.062-.486v-.996c1.433-.82 2.388-2.345 2.388-4.045l-.001-.059.001-.058c0-2.58-2.15-4.69-4.776-4.69s-4.777 2.11-4.777 4.69l.002.058-.002.059c0 1.641.956 3.224 2.389 4.045v.996c0 .645-.418 1.29-1.075 1.583-3.358 1.649-5.705 5.612-6.062 10.18a36.6 36.6 0 0 0-6.238 2.072c-.179.058-.358.234-.358.469s.06.41.239.527l2.388 1.583a.59.59 0 0 0 .537.059 59 59 0 0 1 3.412-1.009c.08 3.299.726 6.257 1.843 8.395a.63.63 0 0 0 .537.293h2.985c.18 0 .478-.117.538-.293s.119-.41 0-.586c-.717-1.349-1.075-3.283-1.135-5.687 3.105-.586 6.508-.586 9.553 0-.06 2.404-.418 4.339-1.134 5.687a.52.52 0 0 0 0 .586c.12.176.358.293.537.293h2.985c.24 0 .418-.117.478-.293 1.12-2.142 1.766-5.108 1.843-8.416 1.125.294 2.278.637 3.47 1.03.06.058.12.058.18.058a.33.33 0 0 0 .299-.175l2.388-1.583c.179-.117.239-.293.239-.528 0-.176-.18-.41-.359-.469m-7.404-2.227c-2.449-.501-4.94-.787-7.401-.86a43 43 0 0 0-3.758.033l7.278-7.146c2.15 1.759 3.582 4.69 3.881 7.973M14.578 7.862l-.01-.007a3.53 3.53 0 0 1-2.026-3.003l-.003-.162c0-1.935 1.611-3.518 3.582-3.518s3.582 1.583 3.523 3.518c0 1.348-.777 2.579-2.03 3.165a1 1 0 0 0-.147.092 3.6 3.6 0 0 1-2.889-.085m-1.383 4.507c1.075-.528 1.732-1.524 1.732-2.638V9.23a4.8 4.8 0 0 0 2.328.014v.487c0 .469.18.997.418 1.407l-9.792 9.614c.538-3.81 2.568-7.035 5.314-8.383m9.732 20.459h-1.731c.597-1.525.895-3.518.895-5.863a.57.57 0 0 0-.477-.586c-3.463-.762-7.464-.762-10.986 0a.573.573 0 0 0-.478.586c0 2.345.299 4.338.896 5.863H9.314c-.955-1.994-1.492-4.69-1.552-7.738.239-.059.418-.118.657-.176 5.194-1.114 9.851-1.114 14.986-.059.358.059.716.176 1.075.235-.06 3.048-.597 5.744-1.553 7.738m6.27-7.68c-4.233-1.359-7.991-2.111-11.698-2.259-3.084-.137-6.122.142-9.379.852-.358.118-.776.176-1.134.294l-.029.014a58 58 0 0 0-3.852 1.1l-1.254-.822c1.673-.711 3.554-1.27 5.449-1.674q.023.012.044.033c.06-.058.12-.058.18-.058a.2.2 0 0 1 .037-.03l.141-.029c.12-.059.24-.117.299-.176l10.866-10.61a.6.6 0 0 0 .133-.189l5.181-5.087.836.82-13.852 13.6c-.179.176-.238.41-.12.645.12.235.36.352.598.352l.023-.002.037.002c2.587-.244 5.26-.26 7.903-.024 1.549.144 3.091.372 4.614.682q.37.078.738.163h.023c1.844.41 3.656.94 5.41 1.583z"/></svg>