<svg xmlns="http://www.w3.org/2000/svg" fill="none" viewBox="0 0 35 35"><path fill="currentColor" d="M14.803 14.468a4.84 4.84 0 0 0-4.836 4.836 4.84 4.84 0 0 0 4.836 4.835 4.84 4.84 0 0 0 4.835-4.835 4.84 4.84 0 0 0-4.835-4.836m0 8.29a3.46 3.46 0 0 1-3.455-3.454 3.46 3.46 0 0 1 3.455-3.455 3.46 3.46 0 0 1 3.454 3.454 3.46 3.46 0 0 1-3.454 3.455"/><path fill="currentColor" d="M14.803 12.3a7.01 7.01 0 0 0-7.004 7.004 7.01 7.01 0 0 0 7.004 7.004 7.01 7.01 0 0 0 7.004-7.004 7.01 7.01 0 0 0-7.004-7.004m0 12.627a5.63 5.63 0 0 1-5.624-5.623 5.63 5.63 0 0 1 5.624-5.624 5.63 5.63 0 0 1 5.623 5.624 5.63 5.63 0 0 1-5.623 5.623"/><path fill="currentColor" d="M33.645 8.195h-1.539a9 9 0 0 0-.604-1.457l1.088-1.089a.69.69 0 0 0 0-.976l-2.928-2.928a.69.69 0 0 0-.976 0l-1.089 1.088a9 9 0 0 0-1.456-.604V.69a.69.69 0 0 0-.69-.69h-4.142a.69.69 0 0 0-.69.69V2.23a9 9 0 0 0-1.458.604l-1.089-1.088a.69.69 0 0 0-.976 0L14.34 4.5h-1.58a.69.69 0 0 0-.69.69v1.837q-.526.116-1.04.277l-.917-1.59a.69.69 0 0 0-.943-.252L5.632 7.505a.69.69 0 0 0-.252.943l.92 1.593q-.397.364-.76.76l-1.593-.92a.69.69 0 0 0-.943.252L.962 13.671a.69.69 0 0 0 .253.943l1.589.918q-.161.512-.277 1.039H.69a.69.69 0 0 0-.69.69v4.085c0 .381.309.69.69.69h1.837q.116.526.277 1.04l-1.59.917a.69.69 0 0 0-.252.943l2.042 3.538a.69.69 0 0 0 .943.253l1.593-.92q.364.396.76.76l-.92 1.592a.69.69 0 0 0 .252.943l3.538 2.042a.69.69 0 0 0 .943-.252l.918-1.59q.512.162 1.039.278v1.836c0 .381.309.69.69.69h4.085a.69.69 0 0 0 .69-.69V31.58q.526-.117 1.04-.278l.917 1.59a.69.69 0 0 0 .943.252l3.538-2.042a.69.69 0 0 0 .252-.943l-.92-1.593q.396-.363.76-.759l1.593.92a.69.69 0 0 0 .943-.253l2.042-3.538a.69.69 0 0 0-.253-.943l-1.589-.918q.161-.512.277-1.039h1.837a.69.69 0 0 0 .69-.69v-1.128l.057-.05 2.928-2.93a.69.69 0 0 0 0-.975l-1.088-1.089q.365-.702.604-1.457h1.539a.69.69 0 0 0 .69-.69V8.885a.69.69 0 0 0-.69-.69m-5.42 12.46h-1.713a.69.69 0 0 0-.68.573 11 11 0 0 1-.514 1.925.69.69 0 0 0 .303.835l1.482.855-1.353 2.343-1.485-.858a.69.69 0 0 0-.874.155c-.426.509-.9.983-1.409 1.409a.69.69 0 0 0-.155.874l.858 1.485-2.342 1.352-.856-1.481a.69.69 0 0 0-.835-.303c-.62.227-1.268.4-1.925.513a.69.69 0 0 0-.572.68v1.714H13.45v-1.714a.69.69 0 0 0-.572-.68 11 11 0 0 1-1.924-.513.69.69 0 0 0-.836.303l-.855 1.482L6.92 30.25l.858-1.485a.69.69 0 0 0-.155-.874 11.3 11.3 0 0 1-1.408-1.409.69.69 0 0 0-.875-.155l-1.485.858-1.352-2.343 1.482-.855a.69.69 0 0 0 .303-.835 11 11 0 0 1-.514-1.925.69.69 0 0 0-.68-.572H1.38V17.95h1.713a.69.69 0 0 0 .68-.572 11 11 0 0 1 .514-1.925.69.69 0 0 0-.303-.835l-1.482-.855 1.352-2.343 1.485.858a.69.69 0 0 0 .875-.155c.426-.509.9-.983 1.408-1.408a.69.69 0 0 0 .155-.875L6.92 8.356l2.343-1.352.855 1.481a.69.69 0 0 0 .835.304c.621-.228 1.269-.4 1.925-.514a.69.69 0 0 0 .572-.68V5.88h2.705v1.714a.69.69 0 0 0 .572.68c.657.114 1.304.286 1.925.514a.69.69 0 0 0 .835-.303l.856-1.482 2.342 1.352-.858 1.485a.69.69 0 0 0 .155.875c.509.426.983.9 1.409 1.408a.69.69 0 0 0 .874.155l1.485-.857 1.353 2.342-1.482.855a.69.69 0 0 0-.303.836c.227.62.4 1.268.513 1.924a.69.69 0 0 0 .68.572h1.714zm4.73-8.318h-1.37a.69.69 0 0 0-.67.522 7.7 7.7 0 0 1-.862 2.08.69.69 0 0 0 .104.843l.97.969-1.522 1.521v-1.011a.69.69 0 0 0-.69-.69H27.08a13 13 0 0 0-.277-1.04l1.589-.917a.69.69 0 0 0 .253-.943L26.6 10.133a.69.69 0 0 0-.943-.252l-1.593.92a13 13 0 0 0-.759-.76l.92-1.593a.69.69 0 0 0-.253-.943l-3.538-2.042a.69.69 0 0 0-.943.252l-.917 1.59q-.513-.16-1.04-.278V5.191a.69.69 0 0 0-.69-.69h-.553l1.292-1.292.97.969a.69.69 0 0 0 .841.105 7.7 7.7 0 0 1 2.082-.863.69.69 0 0 0 .522-.67V1.38h2.761v1.37a.69.69 0 0 0 .522.67c.73.184 1.43.474 2.08.863a.69.69 0 0 0 .843-.105l.969-.97 1.952 1.953-.97.97a.69.69 0 0 0-.103.842 7.7 7.7 0 0 1 .862 2.08.69.69 0 0 0 .67.523h1.37z"/></svg>