<svg xmlns="http://www.w3.org/2000/svg" fill="none" viewBox="0 0 34 34"><path fill="currentColor" d="M17 0C7.65 0 0 7.65 0 17s7.65 17 17 17 17-7.65 17-17S26.35 0 17 0m0 32.867c-8.727 0-15.867-7.14-15.867-15.867S8.273 1.133 17 1.133 32.867 8.273 32.867 17 25.727 32.867 17 32.867"/><path fill="currentColor" d="M19.267 20.967A2.273 2.273 0 0 0 17 18.7a2.273 2.273 0 0 0-2.267 2.267A2.273 2.273 0 0 0 17 23.233a2.273 2.273 0 0 0 2.267-2.266M17 22.1c-.623 0-1.133-.51-1.133-1.133 0-.624.51-1.134 1.133-1.134s1.133.51 1.133 1.134S17.623 22.1 17 22.1M18.7 17a2.273 2.273 0 0 0 2.267 2.267A2.273 2.273 0 0 0 23.233 17a2.273 2.273 0 0 0-2.266-2.267A2.273 2.273 0 0 0 18.7 17m3.4 0c0 .623-.51 1.133-1.133 1.133-.624 0-1.134-.51-1.134-1.133s.51-1.133 1.134-1.133S22.1 16.377 22.1 17M14.733 13.033A2.273 2.273 0 0 0 17 15.3a2.273 2.273 0 0 0 2.267-2.267A2.273 2.273 0 0 0 17 10.767a2.273 2.273 0 0 0-2.267 2.266M17 11.9c.623 0 1.133.51 1.133 1.133 0 .624-.51 1.134-1.133 1.134s-1.133-.51-1.133-1.134S16.377 11.9 17 11.9M13.033 14.733A2.273 2.273 0 0 0 10.767 17a2.273 2.273 0 0 0 2.266 2.267A2.273 2.273 0 0 0 15.3 17a2.273 2.273 0 0 0-2.267-2.267m0 3.4c-.623 0-1.133-.51-1.133-1.133s.51-1.133 1.133-1.133c.624 0 1.134.51 1.134 1.133s-.51 1.133-1.134 1.133M2.833 14.847c1.587.68 3.287 1.02 4.987 1.02h1.417c.283 0 .51-.17.51-.397a7.46 7.46 0 0 1 5.61-5.61.55.55 0 0 0 .453-.567V7.877c0-1.757-.34-3.4-1.02-4.987-.113-.227-.34-.397-.623-.34C8.33 3.683 3.627 8.387 2.493 14.223c-.056.284.114.51.34.624M13.997 3.74c.453 1.303.736 2.663.736 4.08v.963a8.52 8.52 0 0 0-5.95 5.95H7.82c-1.417 0-2.777-.226-4.08-.736C4.873 8.953 8.953 4.873 13.997 3.74M18.587 9.803a7.46 7.46 0 0 1 5.61 5.61.55.55 0 0 0 .566.454h1.417c1.7 0 3.4-.34 4.93-1.077.227-.113.397-.34.34-.623-1.133-5.837-5.837-10.54-11.673-11.674-.284-.056-.51.114-.624.34a12.7 12.7 0 0 0-1.02 4.987v1.417c0 .283.17.51.454.566m.736-1.926c0-1.417.227-2.777.737-4.08 5.043 1.133 9.067 5.156 10.2 10.2-1.303.453-2.663.736-4.08.736h-.963c-.794-2.89-3.06-5.156-5.894-5.893zM15.47 24.197a7.46 7.46 0 0 1-5.61-5.61.55.55 0 0 0-.567-.454H7.877c-1.757 0-3.4.34-4.987 1.02-.227.114-.397.34-.34.624 1.133 5.836 5.837 10.54 11.673 11.673h.114c.226 0 .396-.113.566-.283a12.7 12.7 0 0 0 1.02-4.987v-1.417c0-.283-.17-.51-.453-.566m-.793 1.926c0 1.417-.227 2.777-.737 4.08-5.043-1.133-9.067-5.156-10.2-10.2 1.303-.453 2.663-.736 4.023-.793h.964a8.52 8.52 0 0 0 5.95 5.95zM31.167 19.097a12.7 12.7 0 0 0-4.987-1.02h-1.417c-.283 0-.51.17-.566.453a7.46 7.46 0 0 1-5.61 5.61.55.55 0 0 0-.454.567v1.416c0 1.757.34 3.4 1.02 4.987.057.227.284.34.51.34.057 0 .114 0 .17-.057 5.837-1.133 10.54-5.836 11.674-11.673.056-.283-.114-.51-.34-.623M20.003 30.26c-.453-1.303-.736-2.663-.736-4.08v-.963c2.89-.794 5.156-3.06 5.893-5.894h.963c1.417 0 2.777.227 4.08.737-1.133 5.043-5.156 9.067-10.2 10.2"/></svg>