<?xml version="1.0" encoding="utf-8"?><svg xmlns="http://www.w3.org/2000/svg" xmlns:xlink="http://www.w3.org/1999/xlink"><symbol fill="none" viewBox="0 0 14 12" id="arrows-left" xmlns="http://www.w3.org/2000/svg"><path d="M6 11 1 6l5-5m7 10L8 6l5-5" stroke="#000" stroke-width="2" stroke-linecap="round" stroke-linejoin="round"/></symbol><symbol fill="none" viewBox="0 0 14 12" id="arrows-right" xmlns="http://www.w3.org/2000/svg"><path d="m8 11 5-5-5-5M1 11l5-5-5-5" stroke="#000" stroke-width="2" stroke-linecap="round" stroke-linejoin="round"/></symbol><symbol fill="none" viewBox="0 0 33 34" id="belt" xmlns="http://www.w3.org/2000/svg"><path fill="currentColor" d="M31.824 23.624a42 42 0 0 0-6.12-1.932c-.309-3.765-1.892-7.153-4.342-9.193l4.909-4.82a.53.53 0 0 0 .179-.41.53.53 0 0 0-.18-.41L24.6 5.217a.585.585 0 0 0-.837 0l-5.192 5.117a2 2 0 0 1-.062-.486v-.996c1.433-.82 2.388-2.345 2.388-4.045l-.001-.059.001-.058c0-2.58-2.15-4.69-4.776-4.69s-4.777 2.11-4.777 4.69l.002.058-.002.059c0 1.641.956 3.224 2.389 4.045v.996c0 .645-.418 1.29-1.075 1.583-3.358 1.649-5.705 5.612-6.062 10.18a36.6 36.6 0 0 0-6.238 2.072c-.179.058-.358.234-.358.469s.06.41.239.527l2.388 1.583a.59.59 0 0 0 .537.059 59 59 0 0 1 3.412-1.009c.08 3.299.726 6.257 1.843 8.395a.63.63 0 0 0 .537.293h2.985c.18 0 .478-.117.538-.293s.119-.41 0-.586c-.717-1.349-1.075-3.283-1.135-5.687 3.105-.586 6.508-.586 9.553 0-.06 2.404-.418 4.339-1.134 5.687a.52.52 0 0 0 0 .586c.12.176.358.293.537.293h2.985c.24 0 .418-.117.478-.293 1.12-2.142 1.766-5.108 1.843-8.416 1.125.294 2.278.637 3.47 1.03.06.058.12.058.18.058a.33.33 0 0 0 .299-.175l2.388-1.583c.179-.117.239-.293.239-.528 0-.176-.18-.41-.359-.469m-7.404-2.227a43.464 43.464 0 0 0-7.401-.86 43 43 0 0 0-3.758.033l7.278-7.146c2.15 1.759 3.582 4.69 3.881 7.973M14.578 7.862l-.01-.007a3.53 3.53 0 0 1-2.026-3.003l-.003-.162c0-1.935 1.611-3.518 3.582-3.518s3.582 1.583 3.523 3.518a3.49 3.49 0 0 1-2.03 3.165 1 1 0 0 0-.147.092 3.6 3.6 0 0 1-2.889-.085m-1.383 4.507c1.075-.528 1.732-1.524 1.732-2.638V9.23a4.8 4.8 0 0 0 2.328.014v.487c0 .469.18.997.418 1.407l-9.792 9.614c.538-3.81 2.568-7.035 5.314-8.383m9.732 20.459h-1.731c.597-1.525.895-3.518.895-5.863a.57.57 0 0 0-.477-.586c-3.463-.762-7.464-.762-10.986 0a.573.573 0 0 0-.478.586c0 2.345.299 4.338.896 5.863H9.314c-.955-1.994-1.492-4.69-1.552-7.738.239-.059.418-.118.657-.176 5.194-1.114 9.851-1.114 14.986-.059.358.059.716.176 1.075.235-.06 3.048-.597 5.744-1.553 7.738m6.27-7.68c-4.233-1.359-7.991-2.111-11.698-2.259-3.084-.137-6.122.142-9.379.852-.358.118-.776.176-1.134.294l-.029.014a58 58 0 0 0-3.852 1.1l-1.254-.822c1.673-.711 3.554-1.27 5.449-1.674q.023.012.044.033c.06-.058.12-.058.18-.058a.2.2 0 0 1 .037-.03l.141-.029c.12-.059.24-.117.299-.176l10.866-10.61a.6.6 0 0 0 .133-.189l5.181-5.087.836.82-13.852 13.6c-.179.176-.238.41-.12.645a.66.66 0 0 0 .598.352l.023-.002.037.002c2.587-.244 5.26-.26 7.903-.024a43.19 43.19 0 0 1 4.614.682q.37.078.738.163h.023a42.6 42.6 0 0 1 5.41 1.583z"/></symbol><symbol fill="none" viewBox="0 0 35 35" id="gear" xmlns="http://www.w3.org/2000/svg"><path fill="currentColor" d="M14.803 14.468a4.84 4.84 0 0 0-4.836 4.836 4.84 4.84 0 0 0 4.836 4.835 4.84 4.84 0 0 0 4.835-4.835 4.84 4.84 0 0 0-4.835-4.836m0 8.29a3.46 3.46 0 0 1-3.455-3.454 3.46 3.46 0 0 1 3.455-3.455 3.46 3.46 0 0 1 3.454 3.454 3.46 3.46 0 0 1-3.454 3.455"/><path fill="currentColor" d="M14.803 12.3a7.01 7.01 0 0 0-7.004 7.004 7.01 7.01 0 0 0 7.004 7.004 7.01 7.01 0 0 0 7.004-7.004 7.01 7.01 0 0 0-7.004-7.004m0 12.627a5.63 5.63 0 0 1-5.624-5.623 5.63 5.63 0 0 1 5.624-5.624 5.63 5.63 0 0 1 5.623 5.624 5.63 5.63 0 0 1-5.623 5.623"/><path fill="currentColor" d="M33.645 8.195h-1.539a9 9 0 0 0-.604-1.457l1.088-1.089a.69.69 0 0 0 0-.976l-2.928-2.928a.69.69 0 0 0-.976 0l-1.089 1.088a9 9 0 0 0-1.456-.604V.69a.69.69 0 0 0-.69-.69h-4.142a.69.69 0 0 0-.69.69v1.54a9 9 0 0 0-1.458.604l-1.089-1.088a.69.69 0 0 0-.976 0L14.34 4.5h-1.58a.69.69 0 0 0-.69.69v1.837q-.526.116-1.04.277l-.917-1.59a.69.69 0 0 0-.943-.252L5.632 7.505a.69.69 0 0 0-.252.943l.92 1.593q-.397.364-.76.76l-1.593-.92a.69.69 0 0 0-.943.252L.962 13.671a.69.69 0 0 0 .253.943l1.589.918q-.161.512-.277 1.039H.69a.69.69 0 0 0-.69.69v4.085c0 .381.309.69.69.69h1.837q.116.526.277 1.04l-1.59.917a.69.69 0 0 0-.252.943l2.042 3.538a.69.69 0 0 0 .943.253l1.593-.92q.364.396.76.76l-.92 1.592a.69.69 0 0 0 .252.943l3.538 2.042a.69.69 0 0 0 .943-.252l.918-1.59q.512.162 1.039.278v1.836c0 .381.309.69.69.69h4.085a.69.69 0 0 0 .69-.69V31.58q.526-.117 1.04-.278l.917 1.59a.69.69 0 0 0 .943.252l3.538-2.042a.69.69 0 0 0 .252-.943l-.92-1.593q.396-.363.76-.759l1.593.92a.69.69 0 0 0 .943-.253l2.042-3.538a.69.69 0 0 0-.253-.943l-1.589-.918q.161-.512.277-1.039h1.837a.69.69 0 0 0 .69-.69v-1.128l.057-.05 2.928-2.93a.69.69 0 0 0 0-.975l-1.088-1.089q.365-.702.604-1.457h1.539a.69.69 0 0 0 .69-.69V8.885a.69.69 0 0 0-.69-.69m-5.42 12.46h-1.713a.69.69 0 0 0-.68.573 11 11 0 0 1-.514 1.925.69.69 0 0 0 .303.835l1.482.855-1.353 2.343-1.485-.858a.69.69 0 0 0-.874.155c-.426.509-.9.983-1.409 1.409a.69.69 0 0 0-.155.874l.858 1.485-2.342 1.352-.856-1.481a.69.69 0 0 0-.835-.303c-.62.227-1.268.4-1.925.513a.69.69 0 0 0-.572.68v1.714H13.45v-1.714a.69.69 0 0 0-.572-.68 11 11 0 0 1-1.924-.513.69.69 0 0 0-.836.303l-.855 1.482L6.92 30.25l.858-1.485a.69.69 0 0 0-.155-.874 11.3 11.3 0 0 1-1.408-1.409.69.69 0 0 0-.875-.155l-1.485.858-1.352-2.343 1.482-.855a.69.69 0 0 0 .303-.835 11 11 0 0 1-.514-1.925.69.69 0 0 0-.68-.572H1.38V17.95h1.713a.69.69 0 0 0 .68-.572 11 11 0 0 1 .514-1.925.69.69 0 0 0-.303-.835l-1.482-.855 1.352-2.343 1.485.858a.69.69 0 0 0 .875-.155c.426-.509.9-.983 1.408-1.408a.69.69 0 0 0 .155-.875L6.92 8.356l2.343-1.352.855 1.481a.69.69 0 0 0 .835.304c.621-.228 1.269-.4 1.925-.514a.69.69 0 0 0 .572-.68V5.88h2.705v1.714a.69.69 0 0 0 .572.68c.657.114 1.304.286 1.925.514a.69.69 0 0 0 .835-.303l.856-1.482 2.342 1.352-.858 1.485a.69.69 0 0 0 .155.875c.509.426.983.9 1.409 1.408a.69.69 0 0 0 .874.155l1.485-.857 1.353 2.342-1.482.855a.69.69 0 0 0-.303.836c.227.62.4 1.268.513 1.924a.69.69 0 0 0 .68.572h1.714zm4.73-8.318h-1.37a.69.69 0 0 0-.67.522 7.7 7.7 0 0 1-.862 2.08.69.69 0 0 0 .104.843l.97.969-1.522 1.521v-1.011a.69.69 0 0 0-.69-.69H27.08a13 13 0 0 0-.277-1.04l1.589-.917a.69.69 0 0 0 .253-.943L26.6 10.133a.69.69 0 0 0-.943-.252l-1.593.92a13 13 0 0 0-.759-.76l.92-1.593a.69.69 0 0 0-.253-.943l-3.538-2.042a.69.69 0 0 0-.943.252l-.917 1.59q-.513-.16-1.04-.278V5.191a.69.69 0 0 0-.69-.69h-.553l1.292-1.292.97.969a.69.69 0 0 0 .841.105 7.7 7.7 0 0 1 2.082-.863.69.69 0 0 0 .522-.67V1.38h2.761v1.37a.69.69 0 0 0 .522.67c.73.184 1.43.474 2.08.863a.69.69 0 0 0 .843-.105l.969-.97 1.952 1.953-.97.97a.69.69 0 0 0-.103.842 7.7 7.7 0 0 1 .862 2.08.69.69 0 0 0 .67.523h1.37z"/></symbol><symbol fill="none" viewBox="0 0 11 16" id="location" xmlns="http://www.w3.org/2000/svg"><path d="M5.43 6.515a1.086 1.086 0 1 0 0-2.171 1.086 1.086 0 0 0 0 2.171Z" fill="#FC1200"/><path d="M5.43 0C2.435 0 0 2.33 0 5.192c0 1.363.621 3.175 1.847 5.387.984 1.776 2.122 3.382 2.714 4.182a1.077 1.077 0 0 0 1.738 0c.591-.8 1.73-2.405 2.715-4.182 1.223-2.21 1.844-4.024 1.844-5.387C10.858 2.329 8.423 0 5.43 0Zm0 7.6a2.172 2.172 0 1 1 0-4.343 2.172 2.172 0 0 1 0 4.344Z" fill="#FC1200"/></symbol><symbol fill="none" viewBox="0 0 22 20" id="star" xmlns="http://www.w3.org/2000/svg"><path d="M10.383.464a.5.5 0 0 1 .95 0l2.107 6.482a.5.5 0 0 0 .476.346h6.816a.5.5 0 0 1 .294.904l-5.514 4.007a.5.5 0 0 0-.182.559l2.106 6.483a.5.5 0 0 1-.77.559l-5.514-4.007a.5.5 0 0 0-.587 0L5.05 19.804a.5.5 0 0 1-.77-.56l2.107-6.482a.5.5 0 0 0-.182-.56L.691 8.197a.5.5 0 0 1 .294-.904H7.8a.5.5 0 0 0 .475-.346L10.383.464Z" fill="#FFC700"/></symbol><symbol fill="none" viewBox="0 0 34 34" id="wheel" xmlns="http://www.w3.org/2000/svg"><path fill="currentColor" d="M17 0C7.65 0 0 7.65 0 17s7.65 17 17 17 17-7.65 17-17S26.35 0 17 0m0 32.867c-8.727 0-15.867-7.14-15.867-15.867S8.273 1.133 17 1.133 32.867 8.273 32.867 17 25.727 32.867 17 32.867"/><path fill="currentColor" d="M19.267 20.967A2.273 2.273 0 0 0 17 18.7a2.273 2.273 0 0 0-2.267 2.267A2.273 2.273 0 0 0 17 23.233a2.273 2.273 0 0 0 2.267-2.266M17 22.1c-.623 0-1.133-.51-1.133-1.133 0-.624.51-1.134 1.133-1.134s1.133.51 1.133 1.134S17.623 22.1 17 22.1m1.7-5.1a2.273 2.273 0 0 0 2.267 2.267A2.273 2.273 0 0 0 23.233 17a2.273 2.273 0 0 0-2.266-2.267A2.273 2.273 0 0 0 18.7 17m3.4 0c0 .623-.51 1.133-1.133 1.133-.624 0-1.134-.51-1.134-1.133s.51-1.133 1.134-1.133S22.1 16.377 22.1 17m-7.367-3.967A2.273 2.273 0 0 0 17 15.3a2.273 2.273 0 0 0 2.267-2.267A2.273 2.273 0 0 0 17 10.767a2.273 2.273 0 0 0-2.267 2.266M17 11.9c.623 0 1.133.51 1.133 1.133 0 .624-.51 1.134-1.133 1.134s-1.133-.51-1.133-1.134S16.377 11.9 17 11.9m-3.967 2.833A2.273 2.273 0 0 0 10.767 17a2.273 2.273 0 0 0 2.266 2.267A2.273 2.273 0 0 0 15.3 17a2.273 2.273 0 0 0-2.267-2.267m0 3.4c-.623 0-1.133-.51-1.133-1.133s.51-1.133 1.133-1.133c.624 0 1.134.51 1.134 1.133s-.51 1.133-1.134 1.133m-10.2-3.286c1.587.68 3.287 1.02 4.987 1.02h1.417c.283 0 .51-.17.51-.397a7.46 7.46 0 0 1 5.61-5.61.55.55 0 0 0 .453-.567V7.877c0-1.757-.34-3.4-1.02-4.987-.113-.227-.34-.397-.623-.34C8.33 3.683 3.627 8.387 2.493 14.223c-.056.284.114.51.34.624M13.997 3.74c.453 1.303.736 2.663.736 4.08v.963a8.52 8.52 0 0 0-5.95 5.95H7.82c-1.417 0-2.777-.226-4.08-.736C4.873 8.953 8.953 4.873 13.997 3.74m4.59 6.063a7.46 7.46 0 0 1 5.61 5.61.55.55 0 0 0 .566.454h1.417c1.7 0 3.4-.34 4.93-1.077.227-.113.397-.34.34-.623-1.133-5.837-5.837-10.54-11.673-11.674-.284-.056-.51.114-.624.34a12.7 12.7 0 0 0-1.02 4.987v1.417c0 .283.17.51.454.566m.736-1.926c0-1.417.227-2.777.737-4.08 5.043 1.133 9.067 5.156 10.2 10.2-1.303.453-2.663.736-4.08.736h-.963c-.794-2.89-3.06-5.156-5.894-5.893zm-3.853 16.32a7.46 7.46 0 0 1-5.61-5.61.55.55 0 0 0-.567-.454H7.877c-1.757 0-3.4.34-4.987 1.02-.227.114-.397.34-.34.624 1.133 5.836 5.837 10.54 11.673 11.673h.114c.226 0 .396-.113.566-.283a12.7 12.7 0 0 0 1.02-4.987v-1.417a.55.55 0 0 0-.453-.566m-.793 1.926c0 1.417-.227 2.777-.737 4.08-5.043-1.133-9.067-5.156-10.2-10.2 1.303-.453 2.663-.736 4.023-.793h.964a8.52 8.52 0 0 0 5.95 5.95zm16.49-7.026a12.7 12.7 0 0 0-4.987-1.02h-1.417a.55.55 0 0 0-.566.453 7.46 7.46 0 0 1-5.61 5.61.55.55 0 0 0-.454.567v1.416c0 1.757.34 3.4 1.02 4.987.057.227.284.34.51.34.057 0 .114 0 .17-.057 5.837-1.133 10.54-5.836 11.674-11.673.056-.283-.114-.51-.34-.623M20.003 30.26c-.453-1.303-.736-2.663-.736-4.08v-.963c2.89-.794 5.156-3.06 5.893-5.894h.963c1.417 0 2.777.227 4.08.737-1.133 5.043-5.156 9.067-10.2 10.2"/></symbol></svg>